<svg width="32" height="34" viewBox="0 0 32 34" fill="none" xmlns="http://www.w3.org/2000/svg">
<path d="M28.0374 12.8751C28.444 14.1732 28.6667 15.554 28.6667 16.9871C28.6667 24.47 22.6854 30.5579 15.3334 30.5579C7.98135 30.5579 2.00002 24.47 2.00002 16.9871C2.00002 9.50415 7.98135 3.41629 15.3334 3.41629C18.2787 3.41629 20.9954 4.4056 23.204 6.05784L24.2227 5.12485C21.7547 3.2039 18.6734 2.0592 15.3334 2.0592C7.24602 2.0592 0.666687 8.75572 0.666687 16.9871C0.666687 25.2185 7.24602 31.915 15.3334 31.915C23.4207 31.915 30 25.2185 30 16.9871C30 15.1537 29.672 13.3969 29.0747 11.7732L28.0374 12.8751Z" fill="white"/>
<path d="M29.3333 4.09485L16 16.3086L10 11.5588L8 13.5944L16 21.7369L31.3333 5.45193L29.3333 4.09485Z" fill="white"/>
</svg>
