<svg width="249" height="140" viewBox="0 0 249 140" fill="none" xmlns="http://www.w3.org/2000/svg">
<g filter="url(#filter0_d)">
<rect x="40" y="20" width="169" height="60" rx="10" fill="white"/>
</g>
<path d="M55.316 32.354V42H56.618V32.354H55.316ZM59.3795 35.644C59.9395 35.182 60.5555 34.006 60.6815 32.424H59.5195C59.5335 33.656 59.1415 34.664 58.6375 35.378L59.3795 35.644ZM61.6071 35.462L64.3231 42H65.5551H65.5411L68.2711 35.462H66.9131L64.9391 40.376L62.9511 35.462H61.6071ZM70.2595 38.22C70.4135 37.114 71.2535 36.47 72.3315 36.47C73.3955 36.47 74.1655 37.114 74.3195 38.22H70.2595ZM75.5795 38.71C75.5795 36.638 74.1935 35.322 72.3315 35.322C70.4695 35.322 68.9855 36.638 68.9855 38.71C68.9855 40.782 70.4695 42.14 72.3315 42.14C73.6055 42.14 74.7815 41.566 75.3415 40.404C74.9915 40.25 74.5855 40.138 74.2495 39.984C73.8715 40.642 73.1575 40.992 72.3735 40.992C71.2535 40.992 70.4135 40.32 70.2595 39.214H75.5655C75.5795 39.06 75.5795 38.864 75.5795 38.71ZM85.3015 38.99C85.3015 40.39 84.3775 40.894 83.4535 40.894C82.5575 40.894 82.0255 40.264 82.0255 39.158V35.462H80.7515V39.242C80.7375 41.09 81.6335 42.14 83.2715 42.14C83.9855 42.14 84.8955 41.804 85.3015 41.02V42H86.5755V35.462H85.3015V38.99ZM89.9708 35.462H88.6968V45.178H89.9708V41.02C90.4188 41.762 91.3288 42.14 92.2528 42.14C94.0448 42.14 95.5288 40.824 95.5288 38.752C95.5288 36.68 94.0448 35.322 92.2528 35.322C91.3288 35.322 90.4188 35.742 89.9708 36.484V35.462ZM89.9848 38.766C89.9848 37.38 90.9788 36.568 92.1268 36.568C93.3028 36.568 94.2408 37.464 94.2408 38.766C94.2408 40.068 93.3028 40.894 92.1268 40.894C91.0768 40.894 89.9848 40.166 89.9848 38.766ZM97.2281 31.906V42H98.5021V31.906H97.2281ZM103.614 42.14C105.476 42.14 107.044 40.782 107.044 38.71C107.044 36.638 105.476 35.322 103.614 35.322C101.752 35.322 100.198 36.638 100.198 38.71C100.198 40.782 101.752 42.14 103.614 42.14ZM103.614 40.908C102.424 40.908 101.458 40.054 101.458 38.71C101.458 37.394 102.424 36.568 103.614 36.568C104.776 36.568 105.77 37.394 105.77 38.71C105.77 40.054 104.776 40.908 103.614 40.908ZM113.92 42H115.18V35.462H113.92V36.442C113.472 35.7 112.534 35.322 111.624 35.322C109.832 35.322 108.306 36.638 108.306 38.724C108.306 40.796 109.832 42.14 111.624 42.14C112.534 42.14 113.486 41.72 113.92 40.992V42ZM113.906 38.71C113.906 40.096 112.898 40.894 111.736 40.894C110.56 40.894 109.608 39.998 109.608 38.71C109.608 37.422 110.56 36.568 111.736 36.568C112.8 36.568 113.906 37.31 113.906 38.71ZM122.478 42H123.752V31.906H122.478V36.442C122.044 35.7 121.134 35.322 120.168 35.322C118.376 35.322 116.878 36.638 116.878 38.724C116.878 40.796 118.39 42.14 120.182 42.14C121.092 42.14 122.044 41.72 122.478 40.992V42ZM122.464 38.71C122.464 40.096 121.456 40.894 120.294 40.894C119.118 40.894 118.18 39.998 118.18 38.71C118.18 37.422 119.118 36.568 120.294 36.568C121.358 36.568 122.464 37.31 122.464 38.71ZM126.724 38.22C126.878 37.114 127.718 36.47 128.796 36.47C129.86 36.47 130.63 37.114 130.784 38.22H126.724ZM132.044 38.71C132.044 36.638 130.658 35.322 128.796 35.322C126.934 35.322 125.45 36.638 125.45 38.71C125.45 40.782 126.934 42.14 128.796 42.14C130.07 42.14 131.246 41.566 131.806 40.404C131.456 40.25 131.05 40.138 130.714 39.984C130.336 40.642 129.622 40.992 128.838 40.992C127.718 40.992 126.878 40.32 126.724 39.214H132.03C132.044 39.06 132.044 38.864 132.044 38.71ZM138.83 42H140.104V31.906H138.83V36.442C138.396 35.7 137.486 35.322 136.52 35.322C134.728 35.322 133.23 36.638 133.23 38.724C133.23 40.796 134.742 42.14 136.534 42.14C137.444 42.14 138.396 41.72 138.83 40.992V42ZM138.816 38.71C138.816 40.096 137.808 40.894 136.646 40.894C135.47 40.894 134.532 39.998 134.532 38.71C134.532 37.422 135.47 36.568 136.646 36.568C137.71 36.568 138.816 37.31 138.816 38.71ZM147.637 35.462V32.998H146.363V35.462H145.187V36.54H146.363V42H147.637V36.54H149.023V35.462H147.637ZM151.74 38.472C151.74 37.072 152.832 36.568 153.728 36.568C154.624 36.568 155.268 37.226 155.268 38.304V42H156.542V38.22C156.556 36.372 155.534 35.322 153.896 35.322C153.196 35.322 152.118 35.658 151.74 36.442V31.906H150.466V42H151.74V38.472ZM159.427 38.22C159.581 37.114 160.421 36.47 161.499 36.47C162.563 36.47 163.333 37.114 163.487 38.22H159.427ZM164.747 38.71C164.747 36.638 163.361 35.322 161.499 35.322C159.637 35.322 158.153 36.638 158.153 38.71C158.153 40.782 159.637 42.14 161.499 42.14C162.773 42.14 163.949 41.566 164.509 40.404C164.159 40.25 163.753 40.138 163.417 39.984C163.039 40.642 162.325 40.992 161.541 40.992C160.421 40.992 159.581 40.32 159.427 39.214H164.733C164.747 39.06 164.747 38.864 164.747 38.71ZM60.538 63H61.798V56.462H56.926V55.804C56.926 54.964 57.08 54.124 58.144 54.124H58.858V52.906H58.144C56.38 52.906 55.638 54.082 55.638 55.804V56.462H54.378V57.54H55.638V63H56.926V57.54H60.538V63ZM60.286 54.054C60.286 54.544 60.678 54.88 61.168 54.88C61.658 54.88 62.05 54.544 62.05 54.054C62.05 53.564 61.658 53.228 61.168 53.228C60.678 53.228 60.286 53.564 60.286 54.054ZM65.17 59.472C65.17 58.086 66.094 57.568 67.018 57.568C67.914 57.568 68.46 58.198 68.46 59.304V63H69.734V59.22C69.734 57.372 68.852 56.322 67.214 56.322C66.5 56.322 65.548 56.658 65.17 57.442V56.462H63.896V63H65.17V59.472ZM76.9647 63H78.2247V56.462H76.9647V57.442C76.5167 56.7 75.5787 56.322 74.6687 56.322C72.8767 56.322 71.3507 57.638 71.3507 59.724C71.3507 61.796 72.8767 63.14 74.6687 63.14C75.5787 63.14 76.5307 62.72 76.9647 61.992V63ZM76.9507 59.71C76.9507 61.096 75.9427 61.894 74.7807 61.894C73.6047 61.894 72.6527 60.998 72.6527 59.71C72.6527 58.422 73.6047 57.568 74.7807 57.568C75.8447 57.568 76.9507 58.31 76.9507 59.71ZM79.923 59.71C79.923 61.782 81.519 63.14 83.381 63.14C84.389 63.14 85.299 62.748 85.915 62.076L84.935 61.264C84.543 61.67 83.983 61.908 83.381 61.908C82.205 61.908 81.183 61.012 81.183 59.71C81.183 58.394 82.205 57.568 83.381 57.568C83.983 57.568 84.543 57.792 84.935 58.184L85.901 57.372C85.285 56.7 84.389 56.322 83.381 56.322C81.519 56.322 79.923 57.638 79.923 59.71ZM88.781 56.462H87.521V63H88.781V56.462ZM87.269 54.054C87.269 54.544 87.661 54.88 88.151 54.88C88.641 54.88 89.033 54.544 89.033 54.054C89.033 53.564 88.641 53.228 88.151 53.228C87.661 53.228 87.269 53.564 87.269 54.054ZM96.0917 63H97.3517V56.462H96.0917V57.442C95.6437 56.7 94.7057 56.322 93.7957 56.322C92.0037 56.322 90.4777 57.638 90.4777 59.724C90.4777 61.796 92.0037 63.14 93.7957 63.14C94.7057 63.14 95.6577 62.72 96.0917 61.992V63ZM96.0777 59.71C96.0777 61.096 95.0697 61.894 93.9077 61.894C92.7317 61.894 91.7797 60.998 91.7797 59.71C91.7797 58.422 92.7317 57.568 93.9077 57.568C94.9717 57.568 96.0777 58.31 96.0777 59.71ZM99.4839 52.906V63H100.758V52.906H99.4839ZM107.799 60.62C107.799 58.884 108.331 57.54 109.591 57.54C109.857 57.54 110.207 57.596 110.557 57.764L110.753 56.574C110.571 56.448 110.081 56.322 109.619 56.322C108.765 56.322 108.135 56.77 107.799 57.932V56.462H106.525V63H107.799V60.62ZM112.724 59.22C112.878 58.114 113.718 57.47 114.796 57.47C115.86 57.47 116.63 58.114 116.784 59.22H112.724ZM118.044 59.71C118.044 57.638 116.658 56.322 114.796 56.322C112.934 56.322 111.45 57.638 111.45 59.71C111.45 61.782 112.934 63.14 114.796 63.14C116.07 63.14 117.246 62.566 117.806 61.404C117.456 61.25 117.05 61.138 116.714 60.984C116.336 61.642 115.622 61.992 114.838 61.992C113.718 61.992 112.878 61.32 112.724 60.214H118.03C118.044 60.06 118.044 59.864 118.044 59.71ZM120.938 56.462H119.664V66.178H120.938V62.02C121.386 62.762 122.296 63.14 123.22 63.14C125.012 63.14 126.496 61.824 126.496 59.752C126.496 57.68 125.012 56.322 123.22 56.322C122.296 56.322 121.386 56.742 120.938 57.484V56.462ZM120.952 59.766C120.952 58.38 121.946 57.568 123.094 57.568C124.27 57.568 125.208 58.464 125.208 59.766C125.208 61.068 124.27 61.894 123.094 61.894C122.044 61.894 120.952 61.166 120.952 59.766ZM131.177 63.14C133.039 63.14 134.607 61.782 134.607 59.71C134.607 57.638 133.039 56.322 131.177 56.322C129.315 56.322 127.761 57.638 127.761 59.71C127.761 61.782 129.315 63.14 131.177 63.14ZM131.177 61.908C129.987 61.908 129.021 61.054 129.021 59.71C129.021 58.394 129.987 57.568 131.177 57.568C132.339 57.568 133.333 58.394 133.333 59.71C133.333 61.054 132.339 61.908 131.177 61.908ZM137.576 60.62C137.576 58.884 138.108 57.54 139.368 57.54C139.634 57.54 139.984 57.596 140.334 57.764L140.53 56.574C140.348 56.448 139.858 56.322 139.396 56.322C138.542 56.322 137.912 56.77 137.576 57.932V56.462H136.302V63H137.576V60.62ZM143.59 56.462V53.998H142.316V56.462H141.14V57.54H142.316V63H143.59V57.54H144.976V56.462H143.59Z" fill="#A9299F"/>
<defs>
<filter id="filter0_d" x="0" y="0" width="249" height="140" filterUnits="userSpaceOnUse" color-interpolation-filters="sRGB">
<feFlood flood-opacity="0" result="BackgroundImageFix"/>
<feColorMatrix in="SourceAlpha" type="matrix" values="0 0 0 0 0 0 0 0 0 0 0 0 0 0 0 0 0 0 127 0"/>
<feOffset dy="20"/>
<feGaussianBlur stdDeviation="20"/>
<feColorMatrix type="matrix" values="0 0 0 0 0 0 0 0 0 0 0 0 0 0 0 0 0 0 0.13 0"/>
<feBlend mode="normal" in2="BackgroundImageFix" result="effect1_dropShadow"/>
<feBlend mode="normal" in="SourceGraphic" in2="effect1_dropShadow" result="shape"/>
</filter>
</defs>
</svg>
